<?xml version="1.0" encoding="utf-8"?>
<svg width="900px" height="300px" viewBox="0 0 900 300" version="1.1" xmlns:xlink="http://www.w3.org/1999/xlink" xmlns="http://www.w3.org/2000/svg">
  <defs>
    <path d="M0 0L900 0L900 300L0 300L0 0Z" id="path_1" />
    <path d="M0 0L1085.76 0L1085.76 300L0 300L0 0Z" id="path_2" />
    <path d="M0 0L1085.5 0L1085.5 299.551L0 299.551L0 0Z" id="path_3" />
    <path d="M0 0L1085.5 0L1085.5 299.55L0 299.55L0 0Z" id="path_4" />
    <path d="M4.23377 0.386553C-3.31248 3.15059 -0.269909 14.7647 9.39432 13.7478C19.0719 12.7309 12.3967 -2.60638 4.23377 0.386553L4.23377 0.386553Z" id="path_5" />
    <path d="M0 0L427.429 0L427.429 68L0 68L0 0Z" id="path_6" />
    <clipPath id="clip_1">
      <use xlink:href="#path_1" />
    </clipPath>
    <clipPath id="clip_2">
      <use xlink:href="#path_2" />
    </clipPath>
    <clipPath id="clip_3">
      <use xlink:href="#path_6" />
    </clipPath>
    <clipPath id="mask_1">
      <use xlink:href="#path_3" />
    </clipPath>
    <clipPath id="mask_2">
      <use xlink:href="#path_4" />
    </clipPath>
    <clipPath id="mask_3">
      <use xlink:href="#path_5" />
    </clipPath>
  </defs>
  <g id="Frame" clip-path="url(#clip_1)">
    <path d="M0 0L900 0L900 300L0 300L0 0Z" id="Frame" fill="#FFA52A" fill-rule="evenodd" stroke="none" />
    <g id="dashboard-banner" clip-path="url(#clip_2)" transform="translate(-92 0)">
      <path d="M0 0L1085.76 0L1085.76 300L0 300L0 0Z" id="dashboard-banner" fill="none" fill-rule="evenodd" stroke="none" />
      <g id="Group" transform="translate(-54.000034 0.44885254)">
        <g id="dashboard-banner">
          <path d="M0 0L1085.5 0L1085.5 299.551L0 299.551L0 0Z" id="Rectangle" fill="#00A092" fill-rule="evenodd" stroke="none" />
          <g id="Mask-Group">
            <path d="M0 0L1085.5 0L1085.5 299.551L0 299.551L0 0Z" id="Rectangle" fill="none" fill-rule="evenodd" stroke="none" />
            <g clip-path="url(#mask_1)">
              <g id="Group" transform="translate(-0.006808364 -0.0011153633)">
                <g id="Group">
                  <path d="M0 0L1085.5 0L1085.5 299.55L0 299.55L0 0Z" id="Rectangle" fill="#01A99C" fill-rule="evenodd" stroke="none" />
                  <g id="Mask-Group">
                    <path d="M0 0L1085.5 0L1085.5 299.55L0 299.55L0 0Z" id="Rectangle" fill="none" fill-rule="evenodd" stroke="none" />
                    <g clip-path="url(#mask_2)">
                      <g id="Group" transform="translate(-491.08228 -1040.1821)">
                        <g id="Group" transform="translate(0 6.1035156E-05)">
                          <path d="M1747.71 419.296C1747.34 405.847 1745.61 391.06 1742.33 374.759C1736.97 348.145 1720.26 331.128 1703.44 326.409C1691.32 323.003 1679.02 325.687 1669.89 335.388C1658.16 347.859 1655.93 363.599 1661.94 378.822C1670.29 399.989 1695.43 420.477 1733.57 427.586C1734.8 427.822 1736.03 428.042 1737.26 428.252C1736.77 452.647 1731.21 471.984 1721.79 487.625C1706.59 512.838 1681.49 528.266 1652.43 539.951C1622.39 552.036 1588.13 560.083 1555.58 570.075C1522.16 580.336 1490.54 592.669 1466.7 612.98C1422.23 650.856 1399.25 688.261 1390.41 724.787C1380.07 767.506 1389.04 809.175 1406.32 849.388C1423.24 888.757 1448.12 926.74 1469.95 962.951C1498.71 1010.67 1507.86 1079.96 1490.67 1123.34C1487.97 1130.18 1484.59 1136.36 1480.51 1141.65C1474.97 1119.08 1460.81 1099.89 1443.88 1088.58C1430.07 1079.34 1414.43 1075.33 1399.97 1078.47C1388.37 1080.99 1379.64 1089.07 1375.08 1099.65C1365.05 1122.94 1375.26 1159.32 1421.27 1169.64C1441.64 1174.2 1458.22 1171.48 1471.34 1163.74C1471.81 1163.46 1472.27 1163.19 1472.74 1162.89C1474.56 1201.12 1462.59 1236.17 1435.06 1257.65C1405.34 1280.83 1357.94 1287.96 1291.29 1267.54C1214.57 1244.02 1156.26 1271.56 1136.98 1327.23C1100.25 1317.8 1061.38 1325.06 1026.38 1343.65C968.683 1374.28 921.624 1435.74 912.504 1502.4C912.108 1505.28 914.121 1507.93 916.992 1508.33C919.869 1508.71 922.519 1506.7 922.914 1503.83C931.594 1440.43 976.435 1382.07 1031.3 1352.93C1063.81 1335.67 1099.89 1328.67 1134 1337.31C1124.84 1374.49 1139.32 1399.1 1156.03 1407.51C1164.37 1411.72 1173.43 1412.12 1181.19 1408.58C1195.64 1402 1205.13 1383.53 1194.72 1364.11C1188.52 1352.53 1174.71 1340.31 1149.07 1330.97C1148.4 1330.73 1147.73 1330.49 1147.05 1330.26C1164.8 1279.84 1218.42 1256.2 1288.21 1277.59C1359.32 1299.37 1409.81 1290.67 1441.52 1265.94C1473.43 1241.04 1486.76 1199.68 1482.72 1154.97C1490.19 1147.63 1496.09 1138.19 1500.45 1127.21C1518.62 1081.33 1509.37 1008 1478.95 957.526C1457.36 921.713 1432.7 884.179 1415.97 845.24C1399.61 807.153 1390.83 767.719 1400.62 727.26C1409.04 692.483 1431.17 657.049 1473.51 620.985C1496.34 601.54 1526.69 589.937 1558.66 580.128C1591.5 570.043 1626.04 561.897 1656.35 549.7C1687.64 537.117 1714.43 520.196 1730.79 493.043C1740.83 476.394 1746.99 455.831 1747.71 429.914C1792.44 436.266 1828.64 431.563 1858.72 419.087C1908.42 398.474 1941.53 356.53 1968.57 307.083C1990.64 266.713 2008.7 221.355 2028.89 179.007C2048.73 137.392 2070.6 98.692 2100.67 70.9065C2142.71 32.0717 2234.11 8.45541 2325.68 10.6467C2416.98 12.8394 2508.77 40.6631 2551.8 106.357C2588.65 162.624 2589.09 246.26 2523.93 364.548C2435.29 525.453 2349.96 642.818 2288.38 746.865C2195.07 904.531 2155.87 1031.93 2240.15 1232.14C2241.28 1234.81 2244.36 1236.06 2247.04 1234.94C2249.71 1233.81 2250.97 1230.73 2249.85 1228.06C2167.19 1031.73 2205.92 906.829 2297.42 752.227C2359.05 648.092 2444.44 530.64 2533.14 369.615C2600.98 246.45 2598.96 159.187 2560.59 100.605C2515.86 32.3049 2420.85 2.42121 2325.93 0.142031C2231.28 -2.13056 2137 23.0397 2093.54 63.1857C2032.09 119.952 2003.68 220.971 1959.35 302.04C1933.51 349.291 1902.19 389.685 1854.7 409.379C1825.77 421.372 1790.89 425.648 1747.71 419.296L1747.71 419.296ZM1144.08 1340.35C1137.81 1366.36 1144.46 1385.1 1155.25 1394.4C1161.9 1400.15 1170.08 1402.1 1176.84 1399.02C1181.62 1396.84 1185.53 1392.67 1187.39 1387.45C1189.64 1381.14 1188.8 1373.36 1183.28 1365.56C1177 1356.68 1165.07 1347.98 1145.47 1340.85L1144.08 1340.35L1144.08 1340.35ZM1471.64 1150.78C1468.13 1128.02 1454.6 1108.4 1438.04 1097.31C1426.74 1089.76 1414.02 1086.17 1402.21 1088.74C1394.01 1090.53 1387.95 1096.34 1384.74 1103.8C1376.62 1122.64 1386.37 1151.04 1423.56 1159.39C1440.81 1163.25 1454.89 1161.24 1466 1154.69C1467.97 1153.53 1469.86 1152.22 1471.64 1150.78L1471.64 1150.78ZM1737.15 417.563C1736.68 405.226 1735.02 391.702 1732.03 376.828C1727.62 354.907 1714.45 340.415 1700.6 336.526C1692.28 334.19 1683.81 335.933 1677.55 342.593C1668.8 351.882 1667.24 363.626 1671.71 374.966C1679.09 393.658 1701.81 410.98 1735.5 417.254L1737.15 417.563L1737.15 417.563ZM701.073 905.691C689.608 912.731 677.668 921.625 665.191 932.616C644.822 950.562 638.441 973.546 642.762 990.468C645.872 1002.67 654.346 1011.98 667.313 1015.03C683.982 1018.96 698.727 1013.02 708.903 1000.2C723.058 982.385 728.235 950.375 715.318 913.784C714.91 912.605 714.487 911.434 714.054 910.263C735.422 898.484 754.947 893.629 773.207 893.974C802.639 894.525 828.552 908.552 853.2 927.874C878.688 947.851 902.785 973.495 927.715 996.69C953.309 1020.5 979.798 1041.71 1009.31 1052.21C1064.35 1071.78 1108.23 1072.98 1144.28 1062.38C1186.45 1049.97 1218.05 1021.37 1244.23 986.296C1269.87 951.961 1290.32 911.423 1310.77 874.409C1337.71 825.636 1393.14 783.071 1439.31 776.265C1446.58 775.192 1453.62 775.021 1460.24 775.91C1443.47 792.002 1433.93 813.85 1432.6 834.175C1431.5 850.75 1435.85 866.302 1445.8 877.25C1453.78 886.039 1465.14 889.558 1476.59 888.217C1501.77 885.262 1528.17 858.228 1514.1 813.222C1507.87 793.304 1497.22 780.3 1483.96 772.808C1483.48 772.54 1483.01 772.281 1482.52 772.024C1514.73 751.331 1551.06 744.169 1583.42 757.274C1618.36 771.421 1648.23 808.91 1663.87 876.84C1681.87 955.036 1734.88 991.771 1792.72 980.626C1802.92 1017.16 1828.65 1047.19 1862.24 1068.21C1917.62 1102.85 1994.37 1112.88 2056.67 1087.45C2059.35 1086.35 2060.64 1083.28 2059.55 1080.6C2058.45 1077.91 2055.38 1076.62 2052.7 1077.72C1993.45 1101.9 1920.49 1092.25 1867.82 1059.3C1836.61 1039.78 1812.52 1012.03 1802.95 978.168C1839.73 967.513 1853.79 942.668 1852.72 923.988C1852.2 914.663 1848.02 906.622 1841.08 901.665C1828.15 892.445 1807.41 893.456 1795.79 912.183C1788.86 923.349 1785.19 941.414 1789.92 968.287C1790.05 968.992 1790.17 969.693 1790.31 970.388C1737.77 980.228 1690.49 945.615 1674.12 874.484C1657.43 802.007 1624.65 762.629 1587.38 747.535C1549.86 732.344 1507.38 741.488 1470.67 767.339C1460.58 764.535 1449.46 764.147 1437.77 765.866C1388.95 773.067 1330.07 817.744 1301.57 869.326C1281.35 905.933 1261.17 946.053 1235.81 980.008C1211.01 1013.23 1181.25 1040.54 1141.32 1052.29C1106.99 1062.39 1065.24 1060.94 1012.84 1042.31C984.584 1032.26 959.361 1011.78 934.881 988.997C909.727 965.597 885.401 939.756 859.681 919.601C833.14 898.797 805.093 884.059 773.395 883.464C753.96 883.099 733.068 888.04 710.265 900.377C693.401 858.464 671.229 829.466 645.383 809.651C602.682 776.917 549.804 769.218 493.462 770.523C447.464 771.592 399.153 778.632 352.383 782.318C306.423 785.944 261.978 786.361 222.875 774.205C168.223 757.214 102.075 689.873 58.1862 609.472C14.4342 529.306 -7.36148 435.906 28.0144 365.793C58.3193 305.749 130.527 263.545 265.551 260.836C449.214 257.141 593.521 272.362 714.419 273.67C897.615 275.643 1027.55 245.892 1158.79 72.7993C1160.54 70.4883 1160.08 67.1877 1157.77 65.4355C1155.46 63.6832 1152.16 64.1312 1150.41 66.4421C1021.71 236.186 894.18 265.097 714.539 263.153C593.545 261.854 449.133 246.629 265.331 250.322C124.748 253.155 50.1834 298.531 18.6403 361.06C-18.1442 433.947 3.47924 531.168 48.9636 614.508C94.3228 697.617 163.258 766.677 219.755 784.24C299.641 809.076 401.334 783.176 493.707 781.032C547.545 779.783 598.189 786.712 638.988 817.993C663.836 837.043 684.982 865.118 701.073 905.691L701.073 905.691ZM704.851 915.701C694.399 922.272 683.521 930.478 672.132 940.5C655.355 955.283 649.389 973.932 652.944 987.87C655.081 996.243 660.826 1002.71 669.726 1004.8C682.142 1007.73 693.096 1003.22 700.678 993.666C713.177 977.931 716.82 949.598 705.409 917.284L704.851 915.701L704.851 915.701ZM1800.54 967.924C1826.19 960.346 1839.1 945.213 1841.76 931.224C1843.41 922.585 1841.02 914.534 1834.96 910.218C1830.69 907.168 1825.13 905.864 1819.67 906.863C1813.09 908.073 1806.77 912.69 1802.77 921.37C1798.22 931.249 1796.66 945.929 1800.28 966.468L1800.54 967.924L1800.54 967.924ZM1472.58 779.031C1454.63 793.453 1444.4 814.98 1443.08 834.865C1442.19 848.423 1445.44 861.23 1453.57 870.179C1459.22 876.387 1467.28 878.726 1475.36 877.776C1495.72 875.389 1515.45 852.747 1504.08 816.362C1498.8 799.492 1490.02 788.302 1478.79 781.957C1476.8 780.832 1474.72 779.856 1472.58 779.031L1472.58 779.031Z" id="Group" fill="#FEFEFF" fill-rule="evenodd" stroke="none" />
                          <path d="M1468.21 1307.05C1468.21 1311.73 1402.16 1315.53 1320.69 1315.53C1239.22 1315.53 1173.17 1311.73 1173.17 1307.05C1173.17 1302.37 1239.22 1298.57 1320.69 1298.57C1402.16 1298.57 1468.21 1302.37 1468.21 1307.05L1468.21 1307.05Z" id="Group" fill="#006C63" stroke="none" />
                          <g id="Group" transform="translate(1244.5607 1157.5171)">
                            <path d="M0.245367 145.048C1.48016 141.534 7.74687 132.749 12.4781 125.001C17.5979 116.618 20.7381 105.635 20.7381 105.635L36.0649 122.483C29.1415 139.046 11.9046 146.948 6.77567 148.984C5.35118 149.521 3.78339 149.542 2.34501 149.044C0.809617 148.51 -0.577866 147.392 0.245367 145.048L0.245367 145.048Z" id="Group" fill="#FFB040" stroke="none" />
                            <path d="M19.3829 102.537C19.3829 102.537 23.6332 149.532 78.9835 149.532C97.7003 149.532 106.899 141.971 113.966 141.134C113.966 141.134 106.46 146.512 112.902 149.532L136.221 149.532C136.221 149.532 140.619 145.043 136.628 140.726C136.628 140.726 158.795 128.132 160.862 104.204C162.333 87.2045 156.857 74.9241 147.718 67.2547C141.276 61.8454 133.007 58.7292 124.071 57.8801C121.033 57.5864 117.925 57.5605 114.775 57.7903C114.405 57.8162 114.04 57.8482 113.675 57.8865L113.67 57.8865C105.785 58.7167 99.8694 62.0373 94.9716 65.9648C88.0575 71.4887 83.1783 78.1939 77.6978 80.7228L19.3829 102.537L19.3829 102.537Z" id="Group" fill="#FFC540" stroke="none" />
                            <path d="M86.5546 57.7089C90.3423 60.2679 88.1409 72.5229 81.4765 74.1036L68.0089 62.2991C69.3177 58.5872 82.7714 55.1495 86.5546 57.7089L86.5546 57.7089Z" id="Group" fill="#FFC540" stroke="none" />
                            <path d="M84.8943 61.1766C87.5766 62.9896 86.0181 71.671 81.2961 72.7906L71.755 64.4284C72.68 61.7987 82.2118 59.3637 84.8943 61.1766L84.8943 61.1766Z" id="Group" fill="#FFDCB1" stroke="none" />
                            <path d="M28.5633 46.8535C23.846 48.0143 21.5381 61.05 27.606 65.0778L45.3793 58.2519C45.4394 54.0683 33.2853 45.6921 28.5633 46.8535L28.5633 46.8535Z" id="Group" fill="#FFC540" stroke="none" />
                            <path d="M28.9472 50.9242C25.6034 51.7465 23.9709 60.981 28.2674 63.8341L40.8609 58.9988C40.9025 56.0352 32.291 50.1015 28.9472 50.9242L28.9472 50.9242Z" id="Group" fill="#FFDCB1" stroke="none" />
                            <path d="M53.4544 56.5869C81.2036 59.1746 94.8886 86.4206 87.2622 104.995C79.3722 124.23 18.7217 120.433 13.1072 96.711C8.44994 77.0395 30.4504 54.4415 53.4544 56.5869L53.4544 56.5869Z" id="Group" fill="#FFC540" stroke="none" />
                            <path d="M50.4867 92.2415C53.5225 92.5204 55.1191 89.4372 54.3562 87.1909C53.5933 84.9454 48.0093 84.5635 47.4469 86.5558C46.8886 88.5473 47.7379 91.9882 50.4867 92.2415L50.4867 92.2415Z" id="Group" fill="#221334" stroke="none" />
                            <g id="Group" transform="translate(28.716135 69.1493)">
                              <path d="M9.9499 0.386553C17.4961 3.15059 14.4536 14.7647 4.78934 13.7478C-4.88828 12.7309 1.78697 -2.60638 9.9499 0.386553L9.9499 0.386553Z" id="Group" fill="#FFFFFF" stroke="none" />
                              <path d="M11.2673 1.13108C16.4507 3.37381 14.363 12.7939 7.71613 11.9678C1.06878 11.144 5.65218 -1.297 11.2673 1.13108L11.2673 1.13108Z" id="Group" fill="#221334" stroke="none" />
                              <path d="M2.06147 5.24714C2.06147 3.82344 3.21561 2.6693 4.63933 2.6693C6.06299 2.6693 7.21713 3.82344 7.21713 5.24714C7.21713 6.67086 6.06299 7.825 4.63933 7.825C3.21561 7.825 2.06147 6.67086 2.06147 5.24714Z" id="Group" fill="#FFFFFF" fill-rule="evenodd" stroke="none" />
                              <path d="M9.03565 4.51741C9.03565 3.97323 9.4768 3.53208 10.021 3.53208C10.5652 3.53208 11.0063 3.97323 11.0063 4.51741C11.0063 5.0616 10.5652 5.50275 10.021 5.50275C9.4768 5.50275 9.03565 5.0616 9.03565 4.51741Z" id="Group" fill="#FFFFFF" fill-rule="evenodd" stroke="none" />
                            </g>
                            <g id="Group" transform="translate(61.13444 71.4113)">
                              <g id="Group">
                                <path d="M4.23377 0.386553C-3.31248 3.15059 -0.269909 14.7647 9.39432 13.7478C19.0719 12.7309 12.3967 -2.60638 4.23377 0.386553L4.23377 0.386553Z" id="Shape" fill="#FFFFFF" stroke="none" />
                                <g id="Mask-Group">
                                  <path d="M4.23377 0.386553C-3.31248 3.15059 -0.269909 14.7647 9.39432 13.7478C19.0719 12.7309 12.3967 -2.60638 4.23377 0.386553L4.23377 0.386553Z" id="Shape" fill="none" fill-rule="evenodd" stroke="none" />
                                  <g clip-path="url(#mask_3)">
                                    <g id="Group" transform="translate(-1.9065273 0.44307813)">
                                      <g id="Group">
                                        <path d="M5.9072 0.0757952C0.366491 1.17174 0.415246 10.8203 7.08654 11.4184C13.7578 12.0188 11.9089 -1.11003 5.9072 0.0757952L5.9072 0.0757952Z" id="Shape" fill="#221334" stroke="none" />
                                        <path d="M5.09791 5.31164C5.39895 3.92014 4.51493 2.54804 3.12344 2.247C1.73195 1.94595 0.359842 2.82995 0.0588024 4.22147C-0.242237 5.61298 0.641775 6.98507 2.03327 7.28612C3.42476 7.58716 4.79687 6.70316 5.09791 5.31164Z" id="Group" fill="#FFFFFF" fill-rule="evenodd" stroke="none" />
                                      </g>
                                    </g>
                                  </g>
                                </g>
                              </g>
                              <path d="M7.08954 4.61715C7.08954 4.07296 6.64839 3.63181 6.10423 3.63181C5.56002 3.63181 5.11887 4.07296 5.11887 4.61715C5.11887 5.16133 5.56002 5.60248 6.10423 5.60248C6.64839 5.60248 7.08954 5.16133 7.08954 4.61715Z" id="Group" fill="#FFFFFF" fill-rule="evenodd" stroke="none" />
                            </g>
                            <path d="M50.4997 151.98C44.9267 154.601 34.7947 155.822 32.0462 152.958C29.2977 150.095 34.7598 148.173 34.7598 148.173C43.6733 145.168 49.464 129.959 49.464 129.959L76.7606 131.929C65.2617 145.96 57.9536 148.474 50.4997 151.98L50.4997 151.98Z" id="Group" fill="#FFC540" stroke="none" />
                            <path d="M118.091 49.4698C135.555 57.5416 145.804 42.4899 145.804 42.4899C148.218 43.4602 150.285 44.584 152.052 45.823C155.983 48.5818 158.36 51.9219 159.572 55.4853C160.21 57.369 160.525 59.323 160.562 61.2835C160.622 63.8892 160.192 66.5203 159.415 69.0297L159.405 69.0297C157.579 74.969 153.819 80.295 149.887 83.3728L154.119 89.5864C189.661 74.4454 189.338 13.3055 149.559 1.72762C139.713 -1.13934 131.578 -0.22639 125.223 2.90927C116.584 7.16879 111.224 15.5472 109.295 24.1236C106.909 34.7178 109.748 45.6191 118.091 49.4698L118.091 49.4698Z" id="Group" fill="#FFC540" stroke="none" />
                            <path d="M109.295 24.1236C119.086 21.0772 132.822 27.8591 136.221 22.3162C139.532 16.9138 134.112 6.07639 125.223 2.90926C116.584 7.16878 111.224 15.5472 109.295 24.1236L109.295 24.1236Z" id="Group" fill="#FFDF97" stroke="none" />
                            <path d="M159.415 69.0297C162.694 70.3519 167.758 70.7414 168.84 67.9826C169.913 65.2428 164.571 63.4803 160.562 61.2835C160.622 63.8891 160.192 66.5202 159.415 69.0297L159.415 69.0297Z" id="Group" fill="#FFDF97" stroke="none" />
                            <path d="M152.052 45.823C155.983 48.5817 158.36 51.9218 159.572 55.4853C164.46 54.5654 171.328 50.6638 170.237 46.4233C169.016 41.7106 158.726 45.9063 152.052 45.823L152.052 45.823Z" id="Group" fill="#FFDF97" stroke="none" />
                            <path d="M124.071 57.8801C134.144 65.2558 136.498 83.5324 141.502 84.0818C145.535 84.5226 150.072 76.2205 147.718 67.2547C141.276 61.8454 133.007 58.7292 124.071 57.8801L124.071 57.8801Z" id="Group" fill="#FFDF97" stroke="none" />
                            <path d="M94.9718 65.9648C104.323 74.1069 110.983 85.7995 115.687 84.8865C121.491 83.7562 123.78 68.4742 113.675 57.8865L113.67 57.8865C105.785 58.7167 99.8695 62.0373 94.9718 65.9648L94.9718 65.9648Z" id="Group" fill="#FFDF97" stroke="none" />
                            <path d="M112.359 92.1408C112.359 92.1408 108.567 97.3177 106.566 104.348C104.551 111.432 104.348 120.382 111.549 127.853C111.734 128.042 112.035 128.051 112.228 127.866C112.417 127.682 112.422 127.381 112.237 127.187C105.325 120.013 105.549 111.414 107.488 104.609C109.44 97.754 113.133 92.703 113.133 92.703C113.285 92.4916 113.24 92.1903 113.029 92.0374C112.813 91.88 112.516 91.9249 112.359 92.1408L112.359 92.1408ZM83.7399 76.3402C83.7399 76.3402 93.5902 89.7885 87.1179 104.069C84.6395 109.538 79.5347 112.43 74.3217 113.955C66.3966 116.267 58.1882 115.412 58.1882 115.412C57.9229 115.385 57.689 115.579 57.662 115.839C57.635 116.105 57.8241 116.339 58.0894 116.366C58.0894 116.366 66.4822 117.238 74.5872 114.873C80.0609 113.276 85.3862 110.204 87.9904 104.46C94.6876 89.6896 84.5136 75.7735 84.5136 75.7735C84.3562 75.5621 84.0593 75.5171 83.8434 75.6701C83.6321 75.8275 83.5871 76.1243 83.7399 76.3402L83.7399 76.3402ZM40.2454 87.1071L22.534 82.5011C22.2775 82.4343 22.0175 82.5869 21.9507 82.8434C21.8839 83.0999 22.0368 83.3596 22.2933 83.4264L40.0047 88.0324C40.2612 88.0991 40.5208 87.9466 40.5876 87.6901C40.6544 87.4336 40.5019 87.1738 40.2454 87.1071L40.2454 87.1071ZM62.9209 90.0595L81.0869 87.844C81.35 87.8119 81.5361 87.5746 81.504 87.3116C81.4719 87.0485 81.2345 86.8628 80.9714 86.8949L62.8054 89.1104C62.5423 89.1425 62.3569 89.3798 62.389 89.6429C62.4211 89.9059 62.6578 90.0916 62.9209 90.0595L62.9209 90.0595ZM40.1217 89.9497L21.8228 90.2006C21.5577 90.2042 21.3475 90.4202 21.3513 90.6853C21.355 90.9502 21.5709 91.1602 21.8359 91.1566L40.1348 90.9057C40.3999 90.902 40.6099 90.6862 40.6061 90.4212C40.6024 90.1562 40.3867 89.9461 40.1217 89.9497L40.1217 89.9497ZM62.4078 92.893L80.5117 95.5694C80.7739 95.6082 81.016 95.4286 81.0546 95.1665C81.0937 94.9044 80.9141 94.6624 80.6518 94.6236L62.548 91.9472C62.2857 91.9084 62.0439 92.0881 62.0048 92.3502C61.9662 92.6123 62.1456 92.8542 62.4078 92.893L62.4078 92.893ZM45.3207 97.4062C45.8265 99.1592 47.7914 100.225 49.8815 100.409C51.9632 100.594 54.1131 99.9012 54.972 98.3601C55.1024 98.1291 55.0181 97.8383 54.7871 97.7106C54.5589 97.5801 54.2653 97.6644 54.1377 97.8954C53.4391 99.1456 51.656 99.6077 49.9656 99.4581C48.286 99.3087 46.6472 98.5504 46.2422 97.1426C46.1689 96.8871 45.9025 96.7403 45.6497 96.8137C45.3969 96.8871 45.2502 97.1534 45.3207 97.4062L45.3207 97.4062Z" id="Group" fill="#221334" fill-rule="evenodd" stroke="none" />
                          </g>
                        </g>
                      </g>
                    </g>
                  </g>
                </g>
              </g>
            </g>
          </g>
        </g>
      </g>
      <g id="groomwise-logo-full-vector" clip-path="url(#clip_3)" transform="translate(184.5714 116.81818)">
        <path d="M0 0L427.429 0L427.429 68L0 68L0 0Z" id="groomwise-logo-full-vector" fill="none" fill-rule="evenodd" stroke="none" />
        <path d="M42.1609 17.3187L42.1609 23.3217C42.1609 31.8083 35.2708 38.6984 26.7841 38.6984C18.2974 38.6984 11.4072 31.8083 11.4072 23.3217C11.4072 20.1738 8.85142 17.618 5.70348 17.618C2.55578 17.618 0 20.1738 0 23.3217C0 34.1276 6.41307 43.4474 15.6376 47.6796L15.6288 47.7186C15.5745 47.9759 15.5348 48.2359 15.5148 48.4983C15.4944 48.7667 15.4965 49.0361 15.5016 49.3053C15.5072 49.5899 15.5189 49.8745 15.5369 50.1584C15.6224 51.507 15.8513 52.8458 16.2207 54.1453C16.7903 56.1487 17.6935 58.0539 18.8802 59.7652C20.93 62.721 23.8139 65.0725 27.1269 66.4748C28.8274 67.1946 30.6323 67.6624 32.4684 67.8606C34.5901 68.0899 36.7502 67.9643 38.8298 67.4837C40.5307 67.0906 42.1755 66.4605 43.7042 65.6174C45.7757 64.4752 47.6295 62.9451 49.1461 61.1296C50.5486 59.4513 51.6596 57.5324 52.4124 55.4788C53.1801 53.384 53.5612 51.1666 53.5682 48.9368L53.5682 45.2487C57.9197 48.3079 63.2241 50.1054 68.945 50.1054C83.7276 50.1054 95.7279 38.1041 95.7279 23.3217C95.7279 20.1738 93.1734 17.618 90.0255 17.618C86.8776 17.618 84.3219 20.1738 84.3219 23.3217C84.3219 31.8083 77.4317 38.6984 68.945 38.6984C60.4583 38.6984 53.5682 31.8083 53.5682 23.3217L53.5682 17.4348L60.103 9.2666C61.4728 7.55444 61.7398 5.20888 60.7899 3.23289C59.8401 1.25668 57.8419 0 55.6492 0L40.2231 0C38.0347 0 36.0391 1.25227 35.0873 3.22295C34.1355 5.19365 34.3953 7.53523 35.7558 9.2494L42.1609 17.3187L42.1609 17.3187ZM132.223 63.8527C137.806 63.8527 142.143 62.4876 145.248 59.8012C148.389 57.0833 149.968 53.4689 149.968 48.9508C149.968 48.9508 149.968 22.8527 149.968 22.8527C149.968 21.4682 149.502 20.3166 148.579 19.3935C147.662 18.4766 146.445 18.0041 144.917 18.0041C143.622 18.0041 142.539 18.3563 141.663 19.042C141.049 19.5222 140.593 20.0945 140.292 20.7588C137.952 18.581 135.227 17.4963 132.122 17.4963C127.475 17.4963 123.766 18.97 120.985 21.8919C118.216 24.8017 116.813 28.7398 116.813 33.7184C116.813 38.6953 118.248 42.6679 121.087 45.6469C123.936 48.6368 127.713 50.1438 132.426 50.1438C135.301 50.1438 137.78 49.3256 139.865 47.6949C139.865 47.6947 139.865 48.7478 139.865 48.7478C139.865 50.4635 139.309 51.8462 138.175 52.8879C137.011 53.9575 135.223 54.4602 132.832 54.4602C131.724 54.4602 130.6 54.3296 129.459 54.0689C128.331 53.8112 127.252 53.3924 126.221 52.8133C125.457 52.3568 124.582 52.1245 123.591 52.1245C122.349 52.1245 121.259 52.6028 120.327 53.5737C119.405 54.5338 118.946 55.6675 118.946 56.9734C118.946 59.0318 119.859 60.5574 121.689 61.5485C121.691 61.5498 121.694 61.5512 121.696 61.5522C123.162 62.3205 124.803 62.8977 126.619 63.282C128.418 63.6625 130.286 63.8527 132.223 63.8527L132.223 63.8527L132.223 63.8527ZM42.1603 45.2485C37.8622 48.2701 32.6347 50.0609 26.9938 50.1044C27.5566 53.7608 30.7197 56.5644 34.5325 56.5644C38.7424 56.5644 42.1603 53.1466 42.1603 48.9367L42.1603 45.2485L42.1603 45.2485ZM379.085 50.1435C383.225 50.1435 386.552 49.1984 389.078 47.3392C391.675 45.429 392.972 42.8522 392.972 39.6082C392.972 37.2256 392.447 35.3536 391.436 33.9816C390.422 32.6055 389.171 31.6118 387.687 30.996C386.257 30.403 384.772 29.9844 383.238 29.7403C381.744 29.5024 380.418 29.3157 379.264 29.1794C377.581 28.9299 376.495 28.6659 376.027 28.3228C375.7 28.0826 375.504 27.8296 375.504 27.524C375.504 27.2061 375.736 27.0021 376.113 26.8431C376.705 26.5939 377.594 26.4828 378.781 26.4828C380.026 26.4828 381.253 26.6137 382.465 26.8758C383.635 27.1288 384.602 27.5032 385.362 28.0095C385.382 28.023 385.404 28.0351 385.424 28.0459C386.048 28.3577 386.711 28.5137 387.413 28.5137C388.737 28.5137 389.828 28.0417 390.685 27.1058C391.537 26.1774 391.957 25.1303 391.957 23.9696C391.957 22.6595 391.427 21.4984 390.35 20.4963C389.272 19.4922 387.683 18.725 385.567 18.2229C383.528 17.739 381.366 17.4963 379.085 17.4963C375.076 17.4963 371.881 18.4278 369.49 20.2565C367.039 22.1305 365.807 24.6865 365.807 27.9303C365.807 30.0482 366.319 31.7226 367.304 32.9643C368.28 34.1927 369.49 35.1138 370.936 35.7281C372.338 36.3235 373.755 36.726 375.193 36.9361C376.595 37.1413 377.74 37.2779 378.63 37.3466C380.688 37.5337 382.008 37.8118 382.571 38.2796C383.028 38.6615 383.273 39.0989 383.273 39.6082C383.273 39.9577 383.054 40.1983 382.675 40.3728C382.103 40.6355 381.244 40.751 380.1 40.751C378.856 40.751 377.477 40.5691 375.97 40.2085C374.457 39.8467 373.109 39.4038 371.923 38.8782C371.295 38.5671 370.671 38.4156 370.046 38.4156C368.717 38.4156 367.6 38.9559 366.701 40.0502C365.831 41.1091 365.401 42.2831 365.401 43.5689C365.401 44.1904 365.553 44.8325 365.862 45.4929C365.862 45.4929 365.862 45.4929 365.862 45.4929C366.175 46.1593 366.681 46.732 367.388 47.2025C367.39 47.2048 367.394 47.2069 367.399 47.2091C370.459 49.1575 374.354 50.1435 379.085 50.1435L379.085 50.1435L379.085 50.1435ZM412.129 50.1435C414.412 50.1435 416.746 49.8334 419.133 49.211C421.567 48.5753 423.418 47.7169 424.689 46.6574C424.689 46.6567 424.692 46.6561 424.692 46.6554C426.138 45.4378 426.829 44.1264 426.829 42.7564C426.829 41.586 426.421 40.5713 425.601 39.7132C424.776 38.8472 423.771 38.4156 422.589 38.4156C421.729 38.4156 420.905 38.6841 420.122 39.2318C420.119 39.2343 420.115 39.2367 420.112 39.2394C419.15 39.9438 418.028 40.4704 416.748 40.8228C415.445 41.1809 414.143 41.3604 412.84 41.3604C410.776 41.3604 408.919 40.9283 407.274 40.0573C405.777 39.2648 404.996 38.2169 404.996 36.8666C404.996 36.6805 404.989 36.5363 405.077 36.4619C405.112 36.4321 405.165 36.4345 405.225 36.4345C405.225 36.4345 422.083 36.4345 422.083 36.4345C423.837 36.4345 425.145 35.9102 426.023 34.9175C426.88 33.9497 427.336 32.5064 427.336 30.5703C427.336 28.3705 426.772 26.2766 425.634 24.2896C424.502 22.3067 422.806 20.6738 420.541 19.399C418.298 18.1377 415.463 17.4963 412.028 17.4963C407.197 17.4963 403.191 18.9751 400.006 21.9162C396.811 24.8647 395.197 28.9298 395.197 34.1247C395.197 39.1207 396.846 43.0377 400.118 45.8875C403.37 48.7204 407.373 50.1435 412.129 50.1435L412.129 50.1435L412.129 50.1435ZM194.878 50.1435C197.964 50.1435 200.749 49.4399 203.238 48.0377C205.731 46.6328 207.717 44.6841 209.192 42.1904C210.665 39.6995 211.405 36.8761 211.405 33.7184C211.405 30.4882 210.663 27.6631 209.188 25.2403C207.712 22.8161 205.727 20.9189 203.233 19.5485C200.745 18.1823 197.962 17.4963 194.878 17.4963C191.866 17.4963 189.1 18.1809 186.578 19.5469C184.05 20.9162 182.031 22.8125 180.522 25.2351C179.011 27.6594 178.25 30.4862 178.25 33.7184C178.25 36.878 179.008 39.7031 180.518 42.1957C182.027 44.6875 184.045 46.6352 186.572 48.0392C189.096 49.4412 191.864 50.1435 194.878 50.1435L194.878 50.1435L194.878 50.1435ZM231.945 50.1435C235.029 50.1435 237.815 49.4399 240.303 48.0377C242.798 46.6328 244.781 44.6841 246.257 42.1904C247.73 39.6995 248.47 36.8761 248.47 33.7184C248.47 30.4882 247.728 27.6631 246.253 25.2403C244.779 22.8161 242.791 20.9189 240.299 19.5485C237.81 18.1823 235.027 17.4963 231.945 17.4963C228.931 17.4963 226.164 18.1809 223.643 19.5469C221.115 20.9162 219.097 22.8125 217.587 25.2351C216.076 27.6594 215.315 30.4862 215.315 33.7184C215.315 36.878 216.073 39.7031 217.583 42.1957C219.093 44.6875 221.111 46.6352 223.639 48.0392C226.162 49.4412 228.931 50.1435 231.945 50.1435L231.945 50.1435L231.945 50.1435ZM357.865 50.1436C359.239 50.1436 360.402 49.7002 361.358 48.822C362.329 47.9279 362.815 46.82 362.815 45.4983L362.815 22.6496C362.815 21.334 362.366 20.2327 361.477 19.3427C360.596 18.4622 359.396 18.0041 357.865 18.0041C356.346 18.0041 355.119 18.4532 354.17 19.326C353.194 20.2234 352.712 21.2993 352.712 22.548L352.712 45.5999C352.712 46.931 353.22 48.0274 354.238 48.8887C355.22 49.7203 356.428 50.1436 357.865 50.1436L357.865 50.1436L357.865 50.1436ZM316.396 50.1435C317.733 50.1435 318.975 49.7563 320.126 48.9771C321.274 48.1992 322.119 47.0035 322.638 45.3742C322.638 45.376 326.698 33.3981 326.698 33.3981C326.701 33.3869 326.705 33.3756 326.707 33.3643C326.769 33.1425 326.839 32.9625 326.932 32.8296C326.994 32.739 327.065 32.6773 327.16 32.6773C327.222 32.6773 327.246 32.7421 327.29 32.809C327.378 32.9475 327.449 33.1336 327.511 33.3643C327.513 33.3756 327.518 33.3869 327.522 33.3981L331.584 45.381C331.584 45.3851 331.587 45.3891 331.589 45.393C332.176 47.0117 333.033 48.1995 334.137 48.9721C335.256 49.7559 336.452 50.1435 337.723 50.1435C339.133 50.1435 340.412 49.7355 341.563 48.919C342.716 48.1014 343.524 46.8813 343.972 45.2457C344.054 44.958 350.062 23.927 350.062 23.927C350.063 23.9206 350.067 23.9145 350.068 23.908C350.139 23.6199 350.194 23.3677 350.23 23.1516C350.269 22.9167 350.289 22.6816 350.289 22.4465C350.289 21.0624 349.788 19.8898 348.788 18.9285C347.799 17.9765 346.582 17.4963 345.134 17.4963C343.871 17.4963 342.86 17.7999 342.094 18.3746C341.314 18.9583 340.778 19.8262 340.504 20.9937C340.504 20.9977 340.502 21.0019 340.502 21.0058L337.358 32.9965C337.296 33.22 337.225 33.4008 337.139 33.5359C337.097 33.6028 337.071 33.6677 337.011 33.6677C336.947 33.6677 336.912 33.6136 336.867 33.5511C336.784 33.4308 336.715 33.2685 336.656 33.0681C336.653 33.063 336.653 33.0577 336.651 33.0526L332.395 23.0995C332.079 21.7923 331.394 20.8356 330.352 20.2181C329.341 19.6191 328.31 19.3242 327.261 19.3242C326.208 19.3242 325.193 19.6213 324.214 20.2232C323.228 20.8308 322.497 21.7733 322.04 23.0647C322.04 23.0671 322.038 23.0693 322.038 23.0717L317.671 33.0486C317.668 33.055 317.666 33.0617 317.664 33.0681C317.558 33.4233 317.457 33.6677 317.209 33.6677C317.148 33.6677 317.121 33.6028 317.079 33.5359C316.993 33.401 316.924 33.2209 316.863 32.9986C316.863 32.9965 313.716 21.0058 313.716 21.0058C313.716 21.0019 313.716 20.9977 313.714 20.9937C313.443 19.8262 312.904 18.9583 312.124 18.3746C311.359 17.7999 310.349 17.4963 309.084 17.4963C307.636 17.4963 306.42 17.9765 305.431 18.9285C304.43 19.8898 303.931 21.0624 303.931 22.4465C303.931 22.6816 303.951 22.9167 303.988 23.1516C303.988 23.1516 303.988 23.1516 303.988 23.1516C304.027 23.3677 304.079 23.6199 304.152 23.908C304.152 23.9145 304.155 23.9206 304.157 23.927L310.246 45.2373C310.621 46.8759 311.398 48.0983 312.555 48.919C313.705 49.7355 314.986 50.1435 316.396 50.1435L316.396 50.1435L316.396 50.1435ZM257.433 50.1435C258.806 50.1435 259.97 49.7002 260.924 48.8218C261.897 47.9278 262.383 46.8199 262.383 45.4983L262.383 31.1554C262.701 30.0003 263.319 28.9814 264.236 28.0958C265.143 27.2182 266.298 26.7875 267.689 26.7875C269.115 26.7875 270.221 27.2461 270.994 28.1965C271.813 29.2039 272.183 30.8814 272.183 33.2107L272.183 45.5999C272.183 46.9282 272.674 48.0216 273.65 48.8814C274.599 49.7165 275.791 50.1435 277.235 50.1435C278.673 50.1435 279.863 49.7358 280.81 48.9408C281.794 48.1121 282.287 47.0657 282.287 45.8029L282.287 31.253C282.604 30.0325 283.207 28.9779 284.095 28.089C284.974 27.2123 286.142 26.7875 287.592 26.7875C289.018 26.7875 290.124 27.2461 290.897 28.1965C291.716 29.2039 292.087 30.8814 292.087 33.2107C292.087 33.2107 292.087 45.5999 292.087 45.5999C292.087 46.9282 292.577 48.0216 293.553 48.8814C294.503 49.7165 295.695 50.1435 297.139 50.1435C298.578 50.1435 299.766 49.7358 300.713 48.9408C301.7 48.1121 302.19 47.0657 302.19 45.8029L302.19 32.0937C302.19 27.0268 301.009 23.3437 298.722 21.0215C296.419 18.6826 293.288 17.4963 289.319 17.4963C287.342 17.4963 285.435 17.9019 283.6 18.7139C281.986 19.4275 280.589 20.4261 279.41 21.7095C277.253 18.9173 273.93 17.4963 269.415 17.4963C267.633 17.4963 266.031 17.8202 264.606 18.4616C263.498 18.9601 262.562 19.588 261.793 20.3422C261.696 20.1777 261.58 20.0137 261.445 19.85C260.524 18.6305 259.193 18.0041 257.433 18.0041C255.914 18.0041 254.686 18.4532 253.737 19.3259C252.762 20.2234 252.278 21.2993 252.278 22.548C252.278 22.548 252.278 45.5999 252.278 45.5999C252.278 46.931 252.788 48.0273 253.805 48.8886C254.788 49.7203 255.996 50.1435 257.433 50.1435L257.433 50.1435L257.433 50.1435ZM159.193 49.8389C160.568 49.8389 161.731 49.3957 162.686 48.5173C163.658 47.623 164.143 46.5153 164.143 45.1938C164.143 45.1938 164.143 35.0566 164.143 35.0566C164.336 31.939 164.858 29.8564 165.813 28.837C166.716 27.874 167.862 27.3966 169.246 27.3966C170.083 27.3966 170.919 27.4933 171.756 27.6863C171.757 27.6867 171.759 27.6871 171.76 27.6874C173.184 28.0038 174.431 27.6332 175.498 26.5656C176.521 25.5432 177.04 24.2401 177.04 22.6496C177.04 21.4982 176.693 20.4815 176.002 19.5988C175.315 18.7205 174.436 18.1288 173.368 17.8233C173.361 17.8215 173.355 17.82 173.348 17.8184C172.491 17.6038 171.597 17.4963 170.668 17.4963C169.138 17.4963 167.679 17.9306 166.295 18.8051C165.318 19.4217 164.49 20.1318 163.808 20.9334C163.542 20.296 163.133 19.7258 162.582 19.2228C161.7 18.4176 160.573 18.0041 159.193 18.0041C157.675 18.0041 156.446 18.4532 155.498 19.3259C154.522 20.2234 154.04 21.2993 154.04 22.548L154.04 45.2953C154.04 46.6263 154.548 47.7227 155.567 48.5839C156.549 49.4156 157.756 49.8389 159.193 49.8389L159.193 49.8389L159.193 49.8389ZM194.878 40.7509C193.015 40.7509 191.446 40.0843 190.172 38.7487C188.888 37.4015 188.252 35.7234 188.252 33.7184C188.252 31.6597 188.879 30.0018 190.158 28.7539C191.435 27.508 193.009 26.8887 194.878 26.8887C196.805 26.8887 198.377 27.501 199.589 28.7438C200.808 29.9938 201.403 31.6556 201.403 33.7184C201.403 35.7274 200.799 37.4095 199.575 38.7593C198.366 40.0913 196.799 40.7509 194.878 40.7509L194.878 40.7509ZM231.944 40.7509C230.081 40.7509 228.511 40.0843 227.237 38.7487C225.955 37.4015 225.316 35.7234 225.316 33.7184C225.316 31.6597 225.943 30.0018 227.224 28.7539C228.5 27.508 230.074 26.8887 231.944 26.8887C233.869 26.8887 235.441 27.501 236.654 28.7438C237.872 29.9938 238.468 31.6556 238.468 33.7184C238.468 35.7274 237.863 37.4095 236.64 38.7593C235.433 40.0913 233.865 40.7509 231.944 40.7509L231.944 40.7509ZM133.137 40.7509C131.225 40.7509 129.694 40.0971 128.553 38.7709C127.388 37.4179 126.815 35.732 126.815 33.7184C126.815 31.651 127.379 29.9854 128.539 28.7325C129.683 27.4952 131.219 26.8887 133.137 26.8887C134.99 26.8887 136.491 27.4974 137.634 28.7325C138.793 29.9854 139.357 31.651 139.357 33.7184C139.357 35.732 138.784 37.4179 137.62 38.7709C136.48 40.0949 134.984 40.7509 133.137 40.7509L133.137 40.7509ZM417.721 29.322C417.593 29.3566 417.489 29.3776 417.41 29.3776L405.327 29.3776C405.26 29.3776 405.202 29.3732 405.152 29.3612C405.139 29.3581 405.119 29.3511 405.108 29.3467C405.106 29.3271 405.097 29.2817 405.097 29.2502C405.097 28.4507 405.713 27.7083 406.825 26.9373C408.059 26.0833 409.66 25.6702 411.621 25.6702C413.452 25.6702 414.952 26.0513 416.118 26.8395C417.17 27.549 417.741 28.2974 417.741 29.1487C417.741 29.2054 417.73 29.276 417.721 29.322L417.721 29.322ZM357.865 14.9331C359.373 14.9331 360.673 14.4235 361.767 13.4058C362.868 12.3799 363.425 11.0711 363.425 9.47525C363.425 8.02867 362.877 6.77 361.773 5.7043C360.678 4.64675 359.375 4.11885 357.865 4.11885C356.289 4.11885 354.938 4.6463 353.812 5.69745C352.668 6.76493 352.103 8.02626 352.103 9.47525C352.103 11.0735 352.677 12.385 353.819 13.4125C354.942 14.4243 356.291 14.9331 357.865 14.9331L357.865 14.9331Z" id="Shape" fill="#FFFFFF" fill-rule="evenodd" stroke="none" />
      </g>
    </g>
  </g>
</svg>