<?xml version="1.0" encoding="utf-8"?>
<svg width="900px" height="300px" viewBox="0 0 900 300" version="1.1" xmlns:xlink="http://www.w3.org/1999/xlink" xmlns="http://www.w3.org/2000/svg">
  <defs>
    <path d="M0 0L900 0L900 300L0 300L0 0Z" id="path_1" />
    <path d="M0 0L427.429 0L427.429 68L0 68L0 0Z" id="path_2" />
    <clipPath id="clip_1">
      <use xlink:href="#path_1" />
    </clipPath>
    <clipPath id="clip_2">
      <use xlink:href="#path_2" />
    </clipPath>
  </defs>
  <g id="Frame" clip-path="url(#clip_1)">
    <path d="M0 0L900 0L900 300L0 300L0 0Z" id="Frame" fill="#FFA52A" fill-rule="evenodd" stroke="none" />
    <path d="M0 0L900 0L900 300L0 300L0 0Z" id="Rectangle" fill="#5B00FB" fill-rule="evenodd" stroke="none" />
    <g id="groomwise-logo-full-vector" clip-path="url(#clip_2)" transform="translate(236.57141 116.81818)">
      <path d="M0 0L427.429 0L427.429 68L0 68L0 0Z" id="groomwise-logo-full-vector" fill="none" fill-rule="evenodd" stroke="none" />
      <path d="M42.1609 17.3187L42.1609 23.3217C42.1609 31.8083 35.2708 38.6984 26.7841 38.6984C18.2974 38.6984 11.4072 31.8083 11.4072 23.3217C11.4072 20.1738 8.85142 17.618 5.70348 17.618C2.55578 17.618 0 20.1738 0 23.3217C0 34.1276 6.41307 43.4474 15.6376 47.6796L15.6288 47.7186C15.5745 47.9759 15.5348 48.2359 15.5148 48.4983C15.4944 48.7667 15.4965 49.0361 15.5016 49.3053C15.5072 49.5899 15.5189 49.8745 15.5369 50.1584C15.6224 51.507 15.8513 52.8458 16.2207 54.1453C16.7903 56.1487 17.6935 58.0539 18.8802 59.7652C20.93 62.721 23.8139 65.0725 27.1269 66.4748C28.8274 67.1946 30.6323 67.6624 32.4684 67.8606C34.5901 68.0899 36.7502 67.9643 38.8298 67.4837C40.5307 67.0906 42.1755 66.4605 43.7042 65.6174C45.7757 64.4752 47.6295 62.9451 49.1461 61.1296C50.5486 59.4513 51.6596 57.5324 52.4124 55.4788C53.1801 53.384 53.5612 51.1666 53.5682 48.9368L53.5682 45.2487C57.9197 48.3079 63.2241 50.1054 68.945 50.1054C83.7276 50.1054 95.7279 38.1041 95.7279 23.3217C95.7279 20.1738 93.1734 17.618 90.0255 17.618C86.8776 17.618 84.3219 20.1738 84.3219 23.3217C84.3219 31.8083 77.4317 38.6984 68.945 38.6984C60.4583 38.6984 53.5682 31.8083 53.5682 23.3217L53.5682 17.4348L60.103 9.2666C61.4728 7.55444 61.7398 5.20888 60.7899 3.23289C59.8401 1.25668 57.8419 0 55.6492 0L40.2231 0C38.0347 0 36.0391 1.25227 35.0873 3.22295C34.1355 5.19365 34.3953 7.53523 35.7558 9.2494L42.1609 17.3187L42.1609 17.3187ZM132.223 63.8527C137.806 63.8527 142.143 62.4876 145.248 59.8012C148.389 57.0833 149.968 53.4689 149.968 48.9508C149.968 48.9508 149.968 22.8527 149.968 22.8527C149.968 21.4682 149.502 20.3166 148.579 19.3935C147.662 18.4766 146.445 18.0041 144.917 18.0041C143.622 18.0041 142.539 18.3563 141.663 19.042C141.049 19.5222 140.593 20.0945 140.292 20.7588C137.952 18.581 135.227 17.4963 132.122 17.4963C127.475 17.4963 123.766 18.97 120.985 21.8919C118.216 24.8017 116.813 28.7398 116.813 33.7184C116.813 38.6953 118.248 42.6679 121.087 45.6469C123.936 48.6368 127.713 50.1438 132.426 50.1438C135.301 50.1438 137.78 49.3256 139.865 47.6949C139.865 47.6947 139.865 48.7478 139.865 48.7478C139.865 50.4635 139.309 51.8462 138.175 52.8879C137.011 53.9575 135.223 54.4602 132.832 54.4602C131.724 54.4602 130.6 54.3296 129.459 54.0689C128.331 53.8112 127.252 53.3924 126.221 52.8133C125.457 52.3568 124.582 52.1245 123.591 52.1245C122.349 52.1245 121.259 52.6028 120.327 53.5737C119.405 54.5338 118.946 55.6675 118.946 56.9734C118.946 59.0318 119.859 60.5574 121.689 61.5485C121.691 61.5498 121.694 61.5512 121.696 61.5522C123.162 62.3205 124.803 62.8977 126.619 63.282C128.418 63.6625 130.286 63.8527 132.223 63.8527L132.223 63.8527L132.223 63.8527ZM42.1603 45.2485C37.8622 48.2701 32.6347 50.0609 26.9938 50.1044C27.5566 53.7608 30.7197 56.5644 34.5325 56.5644C38.7424 56.5644 42.1603 53.1466 42.1603 48.9367L42.1603 45.2485L42.1603 45.2485ZM379.085 50.1435C383.225 50.1435 386.552 49.1984 389.078 47.3392C391.675 45.429 392.972 42.8522 392.972 39.6082C392.972 37.2256 392.447 35.3536 391.436 33.9816C390.422 32.6055 389.171 31.6118 387.687 30.996C386.257 30.403 384.772 29.9844 383.238 29.7403C381.744 29.5024 380.418 29.3157 379.264 29.1794C377.581 28.9299 376.495 28.6659 376.027 28.3228C375.7 28.0826 375.504 27.8296 375.504 27.524C375.504 27.2061 375.736 27.0021 376.113 26.8431C376.705 26.5939 377.594 26.4828 378.781 26.4828C380.026 26.4828 381.253 26.6137 382.465 26.8758C383.635 27.1288 384.602 27.5032 385.362 28.0095C385.382 28.023 385.404 28.0351 385.424 28.0459C386.048 28.3577 386.711 28.5137 387.413 28.5137C388.737 28.5137 389.828 28.0417 390.685 27.1058C391.537 26.1774 391.957 25.1303 391.957 23.9696C391.957 22.6595 391.427 21.4984 390.35 20.4963C389.272 19.4922 387.683 18.725 385.567 18.2229C383.528 17.739 381.366 17.4963 379.085 17.4963C375.076 17.4963 371.881 18.4278 369.49 20.2565C367.039 22.1305 365.807 24.6865 365.807 27.9303C365.807 30.0482 366.319 31.7226 367.304 32.9643C368.28 34.1927 369.49 35.1138 370.936 35.7281C372.338 36.3235 373.755 36.726 375.193 36.9361C376.595 37.1413 377.74 37.2779 378.63 37.3466C380.688 37.5337 382.008 37.8118 382.571 38.2796C383.028 38.6615 383.273 39.0989 383.273 39.6082C383.273 39.9577 383.054 40.1983 382.675 40.3728C382.103 40.6355 381.244 40.751 380.1 40.751C378.856 40.751 377.477 40.5691 375.97 40.2085C374.457 39.8467 373.109 39.4038 371.923 38.8782C371.295 38.5671 370.671 38.4156 370.046 38.4156C368.717 38.4156 367.6 38.9559 366.701 40.0502C365.831 41.1091 365.401 42.2831 365.401 43.5689C365.401 44.1904 365.553 44.8325 365.862 45.4929C365.862 45.4929 365.862 45.4929 365.862 45.4929C366.175 46.1593 366.681 46.732 367.388 47.2025C367.39 47.2048 367.394 47.2069 367.399 47.2091C370.459 49.1575 374.354 50.1435 379.085 50.1435L379.085 50.1435L379.085 50.1435ZM412.129 50.1435C414.412 50.1435 416.746 49.8334 419.133 49.211C421.567 48.5753 423.418 47.7169 424.689 46.6574C424.689 46.6567 424.692 46.6561 424.692 46.6554C426.138 45.4378 426.829 44.1264 426.829 42.7564C426.829 41.586 426.421 40.5713 425.601 39.7132C424.776 38.8472 423.771 38.4156 422.589 38.4156C421.729 38.4156 420.905 38.6841 420.122 39.2318C420.119 39.2343 420.115 39.2367 420.112 39.2394C419.15 39.9438 418.028 40.4704 416.748 40.8228C415.445 41.1809 414.143 41.3604 412.84 41.3604C410.776 41.3604 408.919 40.9283 407.274 40.0573C405.777 39.2648 404.996 38.2169 404.996 36.8666C404.996 36.6805 404.989 36.5363 405.077 36.4619C405.112 36.4321 405.165 36.4345 405.225 36.4345C405.225 36.4345 422.083 36.4345 422.083 36.4345C423.837 36.4345 425.145 35.9102 426.023 34.9175C426.88 33.9497 427.336 32.5064 427.336 30.5703C427.336 28.3705 426.772 26.2766 425.634 24.2896C424.502 22.3067 422.806 20.6738 420.541 19.399C418.298 18.1377 415.463 17.4963 412.028 17.4963C407.197 17.4963 403.191 18.9751 400.006 21.9162C396.811 24.8647 395.197 28.9298 395.197 34.1247C395.197 39.1207 396.846 43.0377 400.118 45.8875C403.37 48.7204 407.373 50.1435 412.129 50.1435L412.129 50.1435L412.129 50.1435ZM194.878 50.1435C197.964 50.1435 200.749 49.4399 203.238 48.0377C205.731 46.6328 207.717 44.6841 209.192 42.1904C210.665 39.6995 211.405 36.8761 211.405 33.7184C211.405 30.4882 210.663 27.6631 209.188 25.2403C207.712 22.8161 205.727 20.9189 203.233 19.5485C200.745 18.1823 197.962 17.4963 194.878 17.4963C191.866 17.4963 189.1 18.1809 186.578 19.5469C184.05 20.9162 182.031 22.8125 180.522 25.2351C179.011 27.6594 178.25 30.4862 178.25 33.7184C178.25 36.878 179.008 39.7031 180.518 42.1957C182.027 44.6875 184.045 46.6352 186.572 48.0392C189.096 49.4412 191.864 50.1435 194.878 50.1435L194.878 50.1435L194.878 50.1435ZM231.945 50.1435C235.029 50.1435 237.815 49.4399 240.303 48.0377C242.798 46.6328 244.781 44.6841 246.257 42.1904C247.73 39.6995 248.47 36.8761 248.47 33.7184C248.47 30.4882 247.728 27.6631 246.253 25.2403C244.779 22.8161 242.791 20.9189 240.299 19.5485C237.81 18.1823 235.027 17.4963 231.945 17.4963C228.931 17.4963 226.164 18.1809 223.643 19.5469C221.115 20.9162 219.097 22.8125 217.587 25.2351C216.076 27.6594 215.315 30.4862 215.315 33.7184C215.315 36.878 216.073 39.7031 217.583 42.1957C219.093 44.6875 221.111 46.6352 223.639 48.0392C226.162 49.4412 228.931 50.1435 231.945 50.1435L231.945 50.1435L231.945 50.1435ZM357.865 50.1436C359.239 50.1436 360.402 49.7002 361.358 48.822C362.329 47.9279 362.815 46.82 362.815 45.4983L362.815 22.6496C362.815 21.334 362.366 20.2327 361.477 19.3427C360.596 18.4622 359.396 18.0041 357.865 18.0041C356.346 18.0041 355.119 18.4532 354.17 19.326C353.194 20.2234 352.712 21.2993 352.712 22.548L352.712 45.5999C352.712 46.931 353.22 48.0274 354.238 48.8887C355.22 49.7203 356.428 50.1436 357.865 50.1436L357.865 50.1436L357.865 50.1436ZM316.396 50.1435C317.733 50.1435 318.975 49.7563 320.126 48.9771C321.274 48.1992 322.119 47.0035 322.638 45.3742C322.638 45.376 326.698 33.3981 326.698 33.3981C326.701 33.3869 326.705 33.3756 326.707 33.3643C326.769 33.1425 326.839 32.9625 326.932 32.8296C326.994 32.739 327.065 32.6773 327.16 32.6773C327.222 32.6773 327.246 32.7421 327.29 32.809C327.378 32.9475 327.449 33.1336 327.511 33.3643C327.513 33.3756 327.518 33.3869 327.522 33.3981L331.584 45.381C331.584 45.3851 331.587 45.3891 331.589 45.393C332.176 47.0117 333.033 48.1995 334.137 48.9721C335.256 49.7559 336.452 50.1435 337.723 50.1435C339.133 50.1435 340.412 49.7355 341.563 48.919C342.716 48.1014 343.524 46.8813 343.972 45.2457C344.054 44.958 350.062 23.927 350.062 23.927C350.063 23.9206 350.067 23.9145 350.068 23.908C350.139 23.6199 350.194 23.3677 350.23 23.1516C350.269 22.9167 350.289 22.6816 350.289 22.4465C350.289 21.0624 349.788 19.8898 348.788 18.9285C347.799 17.9765 346.582 17.4963 345.134 17.4963C343.871 17.4963 342.86 17.7999 342.094 18.3746C341.314 18.9583 340.778 19.8262 340.504 20.9937C340.504 20.9977 340.502 21.0019 340.502 21.0058L337.358 32.9965C337.296 33.22 337.225 33.4008 337.139 33.5359C337.097 33.6028 337.071 33.6677 337.011 33.6677C336.947 33.6677 336.912 33.6136 336.867 33.5511C336.784 33.4308 336.715 33.2685 336.656 33.0681C336.653 33.063 336.653 33.0577 336.651 33.0526L332.395 23.0995C332.079 21.7923 331.394 20.8356 330.352 20.2181C329.341 19.6191 328.31 19.3242 327.261 19.3242C326.208 19.3242 325.193 19.6213 324.214 20.2232C323.228 20.8308 322.497 21.7733 322.04 23.0647C322.04 23.0671 322.038 23.0693 322.038 23.0717L317.671 33.0486C317.668 33.055 317.666 33.0617 317.664 33.0681C317.558 33.4233 317.457 33.6677 317.209 33.6677C317.148 33.6677 317.121 33.6028 317.079 33.5359C316.993 33.401 316.924 33.2209 316.863 32.9986C316.863 32.9965 313.716 21.0058 313.716 21.0058C313.716 21.0019 313.716 20.9977 313.714 20.9937C313.443 19.8262 312.904 18.9583 312.124 18.3746C311.359 17.7999 310.349 17.4963 309.084 17.4963C307.636 17.4963 306.42 17.9765 305.431 18.9285C304.43 19.8898 303.931 21.0624 303.931 22.4465C303.931 22.6816 303.951 22.9167 303.988 23.1516C303.988 23.1516 303.988 23.1516 303.988 23.1516C304.027 23.3677 304.079 23.6199 304.152 23.908C304.152 23.9145 304.155 23.9206 304.157 23.927L310.246 45.2373C310.621 46.8759 311.398 48.0983 312.555 48.919C313.705 49.7355 314.986 50.1435 316.396 50.1435L316.396 50.1435L316.396 50.1435ZM257.433 50.1435C258.806 50.1435 259.97 49.7002 260.924 48.8218C261.897 47.9278 262.383 46.8199 262.383 45.4983L262.383 31.1554C262.701 30.0003 263.319 28.9814 264.236 28.0958C265.143 27.2182 266.298 26.7875 267.689 26.7875C269.115 26.7875 270.221 27.2461 270.994 28.1965C271.813 29.2039 272.183 30.8814 272.183 33.2107L272.183 45.5999C272.183 46.9282 272.674 48.0216 273.65 48.8814C274.599 49.7165 275.791 50.1435 277.235 50.1435C278.673 50.1435 279.863 49.7358 280.81 48.9408C281.794 48.1121 282.287 47.0657 282.287 45.8029L282.287 31.253C282.604 30.0325 283.207 28.9779 284.095 28.089C284.974 27.2123 286.142 26.7875 287.592 26.7875C289.018 26.7875 290.124 27.2461 290.897 28.1965C291.716 29.2039 292.087 30.8814 292.087 33.2107C292.087 33.2107 292.087 45.5999 292.087 45.5999C292.087 46.9282 292.577 48.0216 293.553 48.8814C294.503 49.7165 295.695 50.1435 297.139 50.1435C298.578 50.1435 299.766 49.7358 300.713 48.9408C301.7 48.1121 302.19 47.0657 302.19 45.8029L302.19 32.0937C302.19 27.0268 301.009 23.3437 298.722 21.0215C296.419 18.6826 293.288 17.4963 289.319 17.4963C287.342 17.4963 285.435 17.9019 283.6 18.7139C281.986 19.4275 280.589 20.4261 279.41 21.7095C277.253 18.9173 273.93 17.4963 269.415 17.4963C267.633 17.4963 266.031 17.8202 264.606 18.4616C263.498 18.9601 262.562 19.588 261.793 20.3422C261.696 20.1777 261.58 20.0137 261.445 19.85C260.524 18.6305 259.193 18.0041 257.433 18.0041C255.914 18.0041 254.686 18.4532 253.737 19.3259C252.762 20.2234 252.278 21.2993 252.278 22.548C252.278 22.548 252.278 45.5999 252.278 45.5999C252.278 46.931 252.788 48.0273 253.805 48.8886C254.788 49.7203 255.996 50.1435 257.433 50.1435L257.433 50.1435L257.433 50.1435ZM159.193 49.8389C160.568 49.8389 161.731 49.3957 162.686 48.5173C163.658 47.623 164.143 46.5153 164.143 45.1938C164.143 45.1938 164.143 35.0566 164.143 35.0566C164.336 31.939 164.858 29.8564 165.813 28.837C166.716 27.874 167.862 27.3966 169.246 27.3966C170.083 27.3966 170.919 27.4933 171.756 27.6863C171.757 27.6867 171.759 27.6871 171.76 27.6874C173.184 28.0038 174.431 27.6332 175.498 26.5656C176.521 25.5432 177.04 24.2401 177.04 22.6496C177.04 21.4982 176.693 20.4815 176.002 19.5988C175.315 18.7205 174.436 18.1288 173.368 17.8233C173.361 17.8215 173.355 17.82 173.348 17.8184C172.491 17.6038 171.597 17.4963 170.668 17.4963C169.138 17.4963 167.679 17.9306 166.295 18.8051C165.318 19.4217 164.49 20.1318 163.808 20.9334C163.542 20.296 163.133 19.7258 162.582 19.2228C161.7 18.4176 160.573 18.0041 159.193 18.0041C157.675 18.0041 156.446 18.4532 155.498 19.3259C154.522 20.2234 154.04 21.2993 154.04 22.548L154.04 45.2953C154.04 46.6263 154.548 47.7227 155.567 48.5839C156.549 49.4156 157.756 49.8389 159.193 49.8389L159.193 49.8389L159.193 49.8389ZM194.878 40.7509C193.015 40.7509 191.446 40.0843 190.172 38.7487C188.888 37.4015 188.252 35.7234 188.252 33.7184C188.252 31.6597 188.879 30.0018 190.158 28.7539C191.435 27.508 193.009 26.8887 194.878 26.8887C196.805 26.8887 198.377 27.501 199.589 28.7438C200.808 29.9938 201.403 31.6556 201.403 33.7184C201.403 35.7274 200.799 37.4095 199.575 38.7593C198.366 40.0913 196.799 40.7509 194.878 40.7509L194.878 40.7509ZM231.944 40.7509C230.081 40.7509 228.511 40.0843 227.237 38.7487C225.955 37.4015 225.316 35.7234 225.316 33.7184C225.316 31.6597 225.943 30.0018 227.224 28.7539C228.5 27.508 230.074 26.8887 231.944 26.8887C233.869 26.8887 235.441 27.501 236.654 28.7438C237.872 29.9938 238.468 31.6556 238.468 33.7184C238.468 35.7274 237.863 37.4095 236.64 38.7593C235.433 40.0913 233.865 40.7509 231.944 40.7509L231.944 40.7509ZM133.137 40.7509C131.225 40.7509 129.694 40.0971 128.553 38.7709C127.388 37.4179 126.815 35.732 126.815 33.7184C126.815 31.651 127.379 29.9854 128.539 28.7325C129.683 27.4952 131.219 26.8887 133.137 26.8887C134.99 26.8887 136.491 27.4974 137.634 28.7325C138.793 29.9854 139.357 31.651 139.357 33.7184C139.357 35.732 138.784 37.4179 137.62 38.7709C136.48 40.0949 134.984 40.7509 133.137 40.7509L133.137 40.7509ZM417.721 29.322C417.593 29.3566 417.489 29.3776 417.41 29.3776L405.327 29.3776C405.26 29.3776 405.202 29.3732 405.152 29.3612C405.139 29.3581 405.119 29.3511 405.108 29.3467C405.106 29.3271 405.097 29.2817 405.097 29.2502C405.097 28.4507 405.713 27.7083 406.825 26.9373C408.059 26.0833 409.66 25.6702 411.621 25.6702C413.452 25.6702 414.952 26.0513 416.118 26.8395C417.17 27.549 417.741 28.2974 417.741 29.1487C417.741 29.2054 417.73 29.276 417.721 29.322L417.721 29.322ZM357.865 14.9331C359.373 14.9331 360.673 14.4235 361.767 13.4058C362.868 12.3799 363.425 11.0711 363.425 9.47525C363.425 8.02867 362.877 6.77 361.773 5.7043C360.678 4.64675 359.375 4.11885 357.865 4.11885C356.289 4.11885 354.938 4.6463 353.812 5.69745C352.668 6.76493 352.103 8.02626 352.103 9.47525C352.103 11.0735 352.677 12.385 353.819 13.4125C354.942 14.4243 356.291 14.9331 357.865 14.9331L357.865 14.9331Z" id="Shape" fill="#FFFFFF" fill-rule="evenodd" stroke="none" />
    </g>
  </g>
</svg>